<svg width="97" height="97" viewBox="0 0 97 97" fill="none" xmlns="http://www.w3.org/2000/svg">
<path d="M74.1445 71.3555C61.5217 85.5186 39.8075 86.7672 25.6445 74.1445C11.4814 61.5217 10.2328 39.8075 22.8555 25.6445C35.4783 11.4814 57.1925 10.2328 71.3555 22.8555C85.5186 35.4783 86.7672 57.1925 74.1445 71.3555Z" fill="url(#paint0_linear_22_146)"/>
<path d="M17.8566 81.2861C16.3372 81.6605 14.9958 80.2235 15.4737 78.7334L19.0953 67.4415C19.5617 65.9874 21.4198 65.5713 22.4618 66.6876L30.3543 75.1426C31.3963 76.2589 30.8534 78.084 29.3707 78.4493L17.8566 81.2861Z" fill="url(#paint1_linear_22_146)"/>
<g filter="url(#filter0_d_22_146)">
<path fill-rule="evenodd" clip-rule="evenodd" d="M49.7786 38.5813C49.7786 33.7978 52.7902 28.1903 56.1485 28.1903C59.5067 28.1903 62.5209 33.7978 62.5209 38.5813C62.5209 42.7221 59.8174 44.5774 56.9598 45.4326C56.9598 45.4326 56.2435 57.1917 58.6646 66.2767C59.1755 68.215 57.1549 69.5313 56.0304 69.5313C54.9238 69.5313 52.9186 68.2461 53.4244 66.3415C55.8404 57.1425 55.2576 45.5077 55.2576 45.5077C52.5206 44.5412 49.7786 42.6107 49.7786 38.5813ZM39.9298 45.1449C37.1723 44.0747 34.479 43.4865 34.479 38.6512C34.479 36.926 35.0883 32.6161 35.7682 29.7784C36.0944 28.4172 36.8052 28.6161 36.8052 30.0157V37.4779C36.8052 38.1083 37.2103 38.6673 37.8093 38.8636L37.8666 38.8824C38.1682 38.9812 38.4957 38.9662 38.787 38.8402C39.2225 38.6517 39.5207 38.2409 39.5648 37.7684L40.2701 30.2154C40.3268 29.6085 41.2139 29.6117 41.2661 30.219L41.9084 37.6887C41.953 38.2072 42.2866 38.656 42.7702 38.8482C43.0748 38.9693 43.4125 38.9775 43.7226 38.8715L43.7415 38.865C44.3195 38.6674 44.7078 38.1242 44.7078 37.5133V29.1753C44.7078 28.3409 45.3765 28.136 45.6276 28.9317C46.4971 31.6878 47.0956 36.6351 47.0956 38.6175C47.0956 43.401 44.3227 44.0333 41.5807 45.1087C41.4754 48.4255 41.3316 58.6713 43.3009 66.1782C43.8092 68.1139 41.8169 69.4303 40.7103 69.4303C39.6191 69.4303 37.6499 68.145 38.1454 66.243C40.0813 58.7776 40.0607 48.6768 39.9863 45.1475L39.9298 45.1449Z" fill="white"/>
</g>
<g filter="url(#filter1_d_22_146)">
<path d="M48.5065 14.1487C42.4042 14.1475 36.4073 15.7395 31.109 18.7671C25.8107 21.7948 21.3947 26.1531 18.2976 31.4111C15.2005 36.6691 13.5297 42.6445 13.4506 48.7463C13.3714 54.8481 14.8866 60.8649 17.8462 66.2015L13.675 78.7117C13.4278 79.4528 13.3919 80.2481 13.5714 81.0085C13.7508 81.7689 14.1385 82.4642 14.6909 83.0167C15.2434 83.5691 15.9387 83.9567 16.6991 84.1362C17.4595 84.3156 18.2548 84.2798 18.9959 84.0326L31.5061 79.8614C36.1858 82.4544 41.3969 83.9417 46.7402 84.2095C52.0836 84.4773 57.4173 83.5184 62.3328 81.4063C67.2483 79.2942 71.615 76.085 75.0986 72.0244C78.5821 67.9639 81.0899 63.1599 82.4299 57.9804C83.7699 52.8008 83.9065 47.3833 82.8292 42.1429C81.7519 36.9024 79.4893 31.9781 76.2148 27.7472C72.9403 23.5163 68.7408 20.0911 63.938 17.734C59.1352 15.3769 53.8566 14.1505 48.5065 14.1487ZM48.5065 81.4492C42.8367 81.451 37.2666 79.9578 32.3579 77.1203C32.1446 76.9975 31.903 76.9323 31.6568 76.931C31.5055 76.9313 31.3551 76.9562 31.2117 77.0046L18.1091 81.3721C17.8621 81.4545 17.597 81.4665 17.3435 81.4067C17.09 81.3469 16.8582 81.2176 16.6741 81.0335C16.49 80.8493 16.3607 80.6176 16.3009 80.3641C16.2411 80.1106 16.2531 79.8455 16.3355 79.5985L20.703 66.4959C20.766 66.3076 20.7882 66.108 20.7683 65.9104C20.7484 65.7128 20.6867 65.5217 20.5873 65.3497C17.032 59.2041 15.6041 52.057 16.5253 45.0171C17.4464 37.9772 20.6651 31.4381 25.6819 26.4142C30.6988 21.3903 37.2334 18.1624 44.272 17.2314C51.3106 16.3003 58.4597 17.7181 64.6102 21.2648C70.7608 24.8115 75.569 30.2889 78.2889 36.8471C81.0088 43.4054 81.4883 50.6779 79.6532 57.5366C77.818 64.3952 73.7706 70.4565 68.1391 74.7801C62.5075 79.1037 55.6064 81.448 48.5065 81.4492Z" fill="white"/>
</g>
<defs>
<filter id="filter0_d_22_146" x="30.479" y="28.1903" width="36.0419" height="49.3411" filterUnits="userSpaceOnUse" color-interpolation-filters="sRGB">
<feFlood flood-opacity="0" result="BackgroundImageFix"/>
<feColorMatrix in="SourceAlpha" type="matrix" values="0 0 0 0 0 0 0 0 0 0 0 0 0 0 0 0 0 0 127 0" result="hardAlpha"/>
<feOffset dy="4"/>
<feGaussianBlur stdDeviation="2"/>
<feComposite in2="hardAlpha" operator="out"/>
<feColorMatrix type="matrix" values="0 0 0 0 0 0 0 0 0 0 0 0 0 0 0 0 0 0 0.25 0"/>
<feBlend mode="normal" in2="BackgroundImageFix" result="effect1_dropShadow_22_146"/>
<feBlend mode="normal" in="SourceGraphic" in2="effect1_dropShadow_22_146" result="shape"/>
</filter>
<filter id="filter1_d_22_146" x="9.44763" y="14.1487" width="78.0995" height="78.1047" filterUnits="userSpaceOnUse" color-interpolation-filters="sRGB">
<feFlood flood-opacity="0" result="BackgroundImageFix"/>
<feColorMatrix in="SourceAlpha" type="matrix" values="0 0 0 0 0 0 0 0 0 0 0 0 0 0 0 0 0 0 127 0" result="hardAlpha"/>
<feOffset dy="4"/>
<feGaussianBlur stdDeviation="2"/>
<feComposite in2="hardAlpha" operator="out"/>
<feColorMatrix type="matrix" values="0 0 0 0 0 0 0 0 0 0 0 0 0 0 0 0 0 0 0.25 0"/>
<feBlend mode="normal" in2="BackgroundImageFix" result="effect1_dropShadow_22_146"/>
<feBlend mode="normal" in="SourceGraphic" in2="effect1_dropShadow_22_146" result="shape"/>
</filter>
<linearGradient id="paint0_linear_22_146" x1="71.3585" y1="22.8582" x2="25.6415" y2="74.1418" gradientUnits="userSpaceOnUse">
<stop stop-color="#980303"/>
<stop offset="0.241667" stop-color="#E3170A"/>
<stop offset="0.335" stop-color="#F1510D"/>
<stop offset="0.425" stop-color="#FF8B10"/>
<stop offset="0.576667" stop-color="#FBBD68"/>
<stop offset="0.735" stop-color="#FFDC80"/>
</linearGradient>
<linearGradient id="paint1_linear_22_146" x1="30.2943" y1="67.0408" x2="14.0195" y2="81.7387" gradientUnits="userSpaceOnUse">
<stop offset="0.36" stop-color="#FFDC80"/>
<stop offset="1" stop-color="#FCAA3C"/>
</linearGradient>
</defs>
</svg>
