<svg width="224" height="70" viewBox="0 0 224 70" fill="none" xmlns="http://www.w3.org/2000/svg">
<path d="M84.552 27.208C83.8053 27.208 83.1867 27.464 82.696 27.976C82.2267 28.488 81.992 29.1493 81.992 29.96V34.024H85.448V36.008H81.992V49H79.816V36.008H77.896V34.024H79.816V29.96C79.816 28.5733 80.2533 27.4427 81.128 26.568C82.024 25.672 83.1653 25.224 84.552 25.224H85.448V27.208H84.552ZM102.249 34.024V49H100.073V46.792C99.4538 47.6453 98.6965 48.3173 97.8005 48.808C96.9045 49.2773 95.9232 49.512 94.8565 49.512C93.4272 49.512 92.1472 49.1707 91.0165 48.488C89.8858 47.8053 89.0005 46.856 88.3605 45.64C87.7205 44.424 87.4005 43.0373 87.4005 41.48C87.4005 39.944 87.7098 38.5787 88.3285 37.384C88.9685 36.168 89.8432 35.2187 90.9525 34.536C92.0832 33.8533 93.3632 33.512 94.7925 33.512C95.8805 33.512 96.8725 33.7573 97.7685 34.248C98.6858 34.7173 99.4538 35.3893 100.073 36.264V34.024H102.249ZM94.7925 47.528C95.8165 47.528 96.7232 47.272 97.5125 46.76C98.3232 46.248 98.9525 45.5333 99.4005 44.616C99.8485 43.6987 100.073 42.664 100.073 41.512C100.073 40.36 99.8485 39.3253 99.4005 38.408C98.9525 37.4907 98.3232 36.776 97.5125 36.264C96.7232 35.752 95.8165 35.496 94.7925 35.496C93.7898 35.496 92.8938 35.752 92.1045 36.264C91.3152 36.776 90.6965 37.4907 90.2485 38.408C89.8005 39.304 89.5765 40.328 89.5765 41.48C89.5765 42.6533 89.8005 43.6987 90.2485 44.616C90.6965 45.5333 91.3152 46.248 92.1045 46.76C92.8938 47.272 93.7898 47.528 94.7925 47.528ZM113.262 49.512C111.811 49.512 110.521 49.1707 109.39 48.488C108.259 47.8053 107.374 46.856 106.734 45.64C106.094 44.424 105.774 43.048 105.774 41.512C105.774 39.976 106.083 38.6 106.702 37.384C107.342 36.168 108.227 35.2187 109.358 34.536C110.489 33.8533 111.769 33.512 113.198 33.512C114.414 33.512 115.47 33.7787 116.366 34.312C117.283 34.824 118.115 35.56 118.862 36.52L117.262 37.768C116.217 36.2533 114.862 35.496 113.198 35.496C112.195 35.496 111.289 35.752 110.478 36.264C109.689 36.776 109.07 37.4907 108.622 38.408C108.174 39.3253 107.95 40.36 107.95 41.512C107.95 42.664 108.174 43.6987 108.622 44.616C109.07 45.5333 109.689 46.248 110.478 46.76C111.289 47.272 112.195 47.528 113.198 47.528C114.222 47.528 115.065 47.3573 115.726 47.016C116.387 46.6533 116.985 46.1307 117.518 45.448L119.214 46.632C118.51 47.5067 117.635 48.2107 116.59 48.744C115.566 49.256 114.457 49.512 113.262 49.512ZM128.98 33.512C130.324 33.512 131.54 33.8427 132.628 34.504C133.716 35.1653 134.569 36.072 135.188 37.224C135.807 38.3547 136.116 39.624 136.116 41.032C136.116 41.4373 136.105 41.7467 136.084 41.96H123.764C123.849 43.496 124.351 44.808 125.268 45.896C126.185 46.984 127.433 47.528 129.012 47.528C130.292 47.528 131.348 47.2933 132.18 46.824C133.033 46.3333 133.716 45.6613 134.228 44.808L135.956 45.96C135.252 47.0693 134.324 47.944 133.172 48.584C132.02 49.2027 130.655 49.512 129.076 49.512C127.625 49.512 126.335 49.1707 125.204 48.488C124.073 47.8053 123.188 46.856 122.548 45.64C121.908 44.424 121.588 43.048 121.588 41.512C121.588 39.976 121.897 38.6 122.516 37.384C123.156 36.168 124.031 35.2187 125.14 34.536C126.271 33.8533 127.551 33.512 128.98 33.512ZM133.94 40.168C133.727 38.6107 133.204 37.448 132.372 36.68C131.54 35.8907 130.409 35.496 128.98 35.496C127.593 35.496 126.452 35.944 125.556 36.84C124.681 37.7147 124.127 38.824 123.892 40.168H133.94ZM145.365 27.208C144.618 27.208 143.999 27.464 143.509 27.976C143.039 28.488 142.805 29.1493 142.805 29.96V34.024H146.26V36.008H142.805V49H140.629V36.008H138.709V34.024H140.629V29.96C140.629 28.5733 141.066 27.4427 141.941 26.568C142.837 25.672 143.978 25.224 145.365 25.224H146.26V27.208H145.365ZM155.669 49.512C154.24 49.512 152.96 49.1707 151.829 48.488C150.698 47.8053 149.813 46.856 149.173 45.64C148.533 44.4027 148.213 43.016 148.213 41.48C148.213 39.944 148.522 38.5787 149.141 37.384C149.781 36.168 150.656 35.2187 151.765 34.536C152.896 33.8533 154.176 33.512 155.605 33.512C157.034 33.512 158.314 33.8533 159.445 34.536C160.576 35.2187 161.461 36.168 162.101 37.384C162.741 38.6 163.061 39.976 163.061 41.512C163.061 43.048 162.741 44.424 162.101 45.64C161.482 46.856 160.608 47.8053 159.477 48.488C158.368 49.1707 157.098 49.512 155.669 49.512ZM155.605 47.528C156.629 47.528 157.536 47.272 158.325 46.76C159.136 46.248 159.765 45.5333 160.213 44.616C160.661 43.6987 160.885 42.664 160.885 41.512C160.885 40.36 160.661 39.3253 160.213 38.408C159.765 37.4907 159.136 36.776 158.325 36.264C157.536 35.752 156.629 35.496 155.605 35.496C154.602 35.496 153.706 35.752 152.917 36.264C152.128 36.776 151.509 37.4907 151.061 38.408C150.613 39.304 150.389 40.328 150.389 41.48C150.389 42.6533 150.613 43.6987 151.061 44.616C151.509 45.5333 152.128 46.248 152.917 46.76C153.706 47.272 154.602 47.528 155.605 47.528ZM173.169 49.512C171.74 49.512 170.46 49.1707 169.329 48.488C168.198 47.8053 167.313 46.856 166.673 45.64C166.033 44.4027 165.713 43.016 165.713 41.48C165.713 39.944 166.022 38.5787 166.641 37.384C167.281 36.168 168.156 35.2187 169.265 34.536C170.396 33.8533 171.676 33.512 173.105 33.512C174.534 33.512 175.814 33.8533 176.945 34.536C178.076 35.2187 178.961 36.168 179.601 37.384C180.241 38.6 180.561 39.976 180.561 41.512C180.561 43.048 180.241 44.424 179.601 45.64C178.982 46.856 178.108 47.8053 176.977 48.488C175.868 49.1707 174.598 49.512 173.169 49.512ZM173.105 47.528C174.129 47.528 175.036 47.272 175.825 46.76C176.636 46.248 177.265 45.5333 177.713 44.616C178.161 43.6987 178.385 42.664 178.385 41.512C178.385 40.36 178.161 39.3253 177.713 38.408C177.265 37.4907 176.636 36.776 175.825 36.264C175.036 35.752 174.129 35.496 173.105 35.496C172.102 35.496 171.206 35.752 170.417 36.264C169.628 36.776 169.009 37.4907 168.561 38.408C168.113 39.304 167.889 40.328 167.889 41.48C167.889 42.6533 168.113 43.6987 168.561 44.616C169.009 45.5333 169.628 46.248 170.417 46.76C171.206 47.272 172.102 47.528 173.105 47.528ZM198.061 25.768V49H195.885V46.792C195.266 47.6453 194.509 48.3173 193.613 48.808C192.717 49.2773 191.736 49.512 190.669 49.512C189.24 49.512 187.96 49.1707 186.829 48.488C185.698 47.8053 184.813 46.856 184.173 45.64C183.533 44.424 183.213 43.0373 183.213 41.48C183.213 39.944 183.522 38.5787 184.141 37.384C184.781 36.168 185.656 35.2187 186.765 34.536C187.896 33.8533 189.176 33.512 190.605 33.512C191.693 33.512 192.685 33.7573 193.581 34.248C194.498 34.7173 195.266 35.3893 195.885 36.264V25.768H198.061ZM190.605 47.528C191.629 47.528 192.536 47.272 193.325 46.76C194.136 46.248 194.765 45.5333 195.213 44.616C195.661 43.6987 195.885 42.664 195.885 41.512C195.885 40.36 195.661 39.3253 195.213 38.408C194.765 37.4907 194.136 36.776 193.325 36.264C192.536 35.752 191.629 35.496 190.605 35.496C189.602 35.496 188.706 35.752 187.917 36.264C187.128 36.776 186.509 37.4907 186.061 38.408C185.613 39.304 185.389 40.328 185.389 41.48C185.389 42.6533 185.613 43.6987 186.061 44.616C186.509 45.5333 187.128 46.248 187.917 46.76C188.706 47.272 189.602 47.528 190.605 47.528Z" fill="black"/>
<path d="M53.5063 51.4937C44.397 61.7144 28.727 62.6155 18.5063 53.5063C8.28549 44.3971 7.38441 28.7271 16.4936 18.5063C25.6028 8.28556 41.2729 7.38447 51.4936 16.4937C61.7144 25.6029 62.6155 41.2729 53.5063 51.4937Z" fill="url(#paint0_linear_99_709)"/>
<path d="M13.8538 58.4217C12.3344 58.7961 10.993 57.3591 11.4709 55.869L13.4904 49.5725C13.9568 48.1184 15.8149 47.7023 16.8569 48.8186L21.2578 53.5332C22.2998 54.6495 21.7569 56.4745 20.2742 56.8399L13.8538 58.4217Z" fill="url(#paint1_linear_99_709)"/>
<g filter="url(#filter0_d_99_709)">
<path fill-rule="evenodd" clip-rule="evenodd" d="M35.9227 27.8422C35.9227 24.3902 38.096 20.3436 40.5195 20.3436C42.943 20.3436 45.1182 24.3902 45.1182 27.8422C45.1182 30.8305 43.1672 32.1694 41.105 32.7865C41.105 32.7865 40.588 41.2725 42.3352 47.8287C42.7039 49.2274 41.2458 50.1774 40.4343 50.1774C39.6357 50.1774 38.1886 49.2498 38.5536 47.8754C40.2971 41.2369 39.8766 32.8407 39.8766 32.8407C37.9015 32.1432 35.9227 30.7501 35.9227 27.8422ZM28.8153 32.5789C26.8253 31.8066 24.8817 31.3821 24.8817 27.8927C24.8817 26.7987 25.2212 24.2644 25.6365 22.2763C25.9227 20.9062 26.5604 21.0679 26.5604 22.4675V27.046C26.5604 27.5009 26.8527 27.9044 27.285 28.046L27.3263 28.0595C27.5441 28.1309 27.7803 28.12 27.9906 28.0291V28.0291C28.3049 27.8931 28.5201 27.5966 28.5519 27.2556L28.9166 23.3502C28.9733 22.7432 29.8604 22.7465 29.9126 23.3538L30.2432 27.1981C30.2753 27.5723 30.5161 27.8962 30.8651 28.0349V28.0349C31.0848 28.1222 31.3286 28.1282 31.5524 28.0517L31.566 28.047C31.9831 27.9044 32.2633 27.5124 32.2633 27.0716V21.6271C32.2633 20.7927 32.8723 20.6229 33.0858 21.4295C33.6263 23.4709 33.9865 26.5619 33.9865 27.8684C33.9865 31.3204 31.9854 31.7767 30.0066 32.5527C29.9307 34.9463 29.8269 42.3402 31.248 47.7576C31.6149 49.1545 30.1771 50.1044 29.3785 50.1044C28.5911 50.1044 27.17 49.1769 27.5276 47.8043C28.9246 42.4169 28.9098 35.1277 28.856 32.5808L28.8153 32.5789Z" fill="white"/>
</g>
<g filter="url(#filter1_d_99_709)">
<path d="M35.0046 10.2103C30.6008 10.2095 26.2732 11.3584 22.4497 13.5432C18.6262 15.7281 15.4393 18.8733 13.2043 22.6678C10.9693 26.4622 9.7636 30.7743 9.70647 35.1777C9.64935 39.5811 10.7428 43.9231 12.8786 47.7742L9.86841 56.8022C9.69005 57.337 9.66416 57.9109 9.79366 58.4597C9.92315 59.0084 10.2029 59.5102 10.6016 59.9089C11.0002 60.3075 11.502 60.5873 12.0508 60.7168C12.5995 60.8463 13.1734 60.8204 13.7083 60.642L22.7362 57.6319C26.1133 59.5031 29.8739 60.5764 33.7299 60.7697C37.586 60.9629 41.435 60.271 44.9823 58.7468C48.5295 57.2226 51.6808 54.9066 54.1947 51.9763C56.7086 49.0461 58.5184 45.5792 59.4854 41.8414C60.4524 38.1036 60.5509 34.1941 59.7735 30.4123C58.9961 26.6306 57.3633 23.0769 55.0003 20.0237C52.6372 16.9705 49.6066 14.4987 46.1407 12.7977C42.6748 11.0967 38.8654 10.2116 35.0046 10.2103ZM35.0046 58.7777C30.9129 58.779 26.8933 57.7014 23.3509 55.6537C23.197 55.5651 23.0226 55.5181 22.845 55.5172C22.7358 55.5174 22.6273 55.5353 22.5238 55.5703L13.0683 58.7221C12.89 58.7816 12.6987 58.7902 12.5158 58.747C12.3329 58.7039 12.1656 58.6106 12.0327 58.4777C11.8998 58.3448 11.8066 58.1776 11.7634 57.9946C11.7203 57.8117 11.7289 57.6204 11.7883 57.4421L14.9402 47.9867C14.9856 47.8508 15.0017 47.7067 14.9873 47.5641C14.9729 47.4215 14.9284 47.2836 14.8567 47.1595C12.291 42.7246 11.2606 37.5668 11.9253 32.4865C12.5901 27.4062 14.9128 22.6872 18.5332 19.0617C22.1536 15.4362 26.8693 13.1068 31.9487 12.4349C37.0281 11.763 42.1873 12.7862 46.6258 15.3457C51.0644 17.9052 54.5342 21.8579 56.497 26.5907C58.4598 31.3234 58.8059 36.5717 57.4815 41.5212C56.1572 46.4707 53.2364 50.8448 49.1724 53.965C45.1084 57.0851 40.1282 58.7769 35.0046 58.7777Z" fill="white"/>
</g>
<defs>
<filter id="filter0_d_99_709" x="20.8818" y="20.3436" width="28.2363" height="37.8337" filterUnits="userSpaceOnUse" color-interpolation-filters="sRGB">
<feFlood flood-opacity="0" result="BackgroundImageFix"/>
<feColorMatrix in="SourceAlpha" type="matrix" values="0 0 0 0 0 0 0 0 0 0 0 0 0 0 0 0 0 0 127 0" result="hardAlpha"/>
<feOffset dy="4"/>
<feGaussianBlur stdDeviation="2"/>
<feComposite in2="hardAlpha" operator="out"/>
<feColorMatrix type="matrix" values="0 0 0 0 0 0 0 0 0 0 0 0 0 0 0 0 0 0 0.25 0"/>
<feBlend mode="normal" in2="BackgroundImageFix" result="effect1_dropShadow_99_709"/>
<feBlend mode="normal" in="SourceGraphic" in2="effect1_dropShadow_99_709" result="shape"/>
</filter>
<filter id="filter1_d_99_709" x="5.70435" y="10.2103" width="58.5874" height="58.5911" filterUnits="userSpaceOnUse" color-interpolation-filters="sRGB">
<feFlood flood-opacity="0" result="BackgroundImageFix"/>
<feColorMatrix in="SourceAlpha" type="matrix" values="0 0 0 0 0 0 0 0 0 0 0 0 0 0 0 0 0 0 127 0" result="hardAlpha"/>
<feOffset dy="4"/>
<feGaussianBlur stdDeviation="2"/>
<feComposite in2="hardAlpha" operator="out"/>
<feColorMatrix type="matrix" values="0 0 0 0 0 0 0 0 0 0 0 0 0 0 0 0 0 0 0.25 0"/>
<feBlend mode="normal" in2="BackgroundImageFix" result="effect1_dropShadow_99_709"/>
<feBlend mode="normal" in="SourceGraphic" in2="effect1_dropShadow_99_709" result="shape"/>
</filter>
<linearGradient id="paint0_linear_99_709" x1="51.4957" y1="16.4956" x2="18.5041" y2="53.5044" gradientUnits="userSpaceOnUse">
<stop stop-color="#980303"/>
<stop offset="0.241667" stop-color="#E3170A"/>
<stop offset="0.335" stop-color="#F1510D"/>
<stop offset="0.425" stop-color="#FF8B10"/>
<stop offset="0.576667" stop-color="#FBBD68"/>
<stop offset="0.735" stop-color="#FFDC80"/>
</linearGradient>
<linearGradient id="paint1_linear_99_709" x1="21.8618" y1="48.38" x2="10.1171" y2="58.9867" gradientUnits="userSpaceOnUse">
<stop offset="0.36" stop-color="#FFDC80"/>
<stop offset="1" stop-color="#FCAA3C"/>
</linearGradient>
</defs>
</svg>
